<svg version="1.0" xmlns="http://www.w3.org/2000/svg"
 width="60px" height="45px" viewBox="0 0 120.000000 90.000000"
 preserveAspectRatio="xMidYMid meet">
<g transform="translate(0.000000,90.000000) scale(0.100000,-0.100000)"
fill="#FFFFFF" stroke="none">
<path d="M547 830 c-23 -95 -80 -246 -135 -355 -93 -186 -215 -335 -340 -415
-39 -25 -71 -48 -71 -53 -1 -4 128 -6 287 -5 l287 3 3 439 c1 242 -1 443 -6
448 -4 4 -16 -24 -25 -62z"/>
<path d="M626 890 c-3 -8 -5 -211 -4 -450 l3 -435 288 -3 c158 -1 287 1 286 5
0 5 -32 28 -71 53 -197 126 -382 422 -472 758 -14 50 -26 81 -30 72z"/>
</g>
</svg>
